<?xml version="1.0" encoding="utf-8"?>
<!-- Generator: Adobe Illustrator 24.3.0, SVG Export Plug-In . SVG Version: 6.00 Build 0)  -->
<svg version="1.1" id="Layer_1" xmlns="http://www.w3.org/2000/svg" xmlns:xlink="http://www.w3.org/1999/xlink" x="0px" y="0px"
	 viewBox="0 0 1920 1080" style="enable-background:new 0 0 1920 1080;" xml:space="preserve">
<style type="text/css">
	.st0{fill:#829AE1;}
	.st1{fill:#7DA2E1;}
	.st2{fill:#9185E1;}
	.st3{fill:#8C8CE1;}
	.st4{fill:#819CE1;}
	.st5{fill:#8694E2;}
	.st6{fill:#8795E1;}
</style>
<g>
	<path class="st0" d="M1487.9,483.06c1.96,5.41,0.08,11.8,4.29,16.63c0,24.25,0,48.5,0,72.74c-5.55,12.12-3.18,25.5-6.1,38.05
		c-1.39,5.99-2.5,12.06-3.74,18.09c-4.15-0.45-7.24,1.1-9.9,4.37c-8.29,10.19-30.75,15.38-39.49,6.47
		c-7.95-8.1-15.95-5.98-24.44-6.71c-7.81-0.67-16.91,2.92-23.1-2.93c-6.72-6.35-14.85-6.22-22.13-6.21
		c-5.85,0-10.38-0.66-15.29-3.51c-5.49-3.19-22.64-0.79-26.26,3.59c-12.19,14.74-27.96,20.06-46.66,19.6
		c-17.16-0.43-34.12-0.21-51.13,5.03c-6.63,2.04-14.83,8.29-23.09,2.55c7.31-19.7,14.86-39.3,19.01-60.03
		c6.42-32.13,7.55-64.31,1.77-96.61c-0.7-3.91-0.73-7.47,0.68-11.1c3.8,0,7.71,0.59,11.37-0.11c15.47-2.95,28.31,1.37,38.81,12.99
		c2.18,2.41,5.32,2.15,7.76,1.52c8.23-2.12,17.48-3.9,22.55-10.86c4.84-6.64,10.08-8.32,17.41-7.8c3.73,0.26,7.77,0.3,11.24-0.85
		c20.23-6.71,39.63-4.29,58.94,3.82c5.64,2.37,12.43,3.25,17.68-1.19c5.31-4.49,11.73-5.85,17.92-7.45c7.74-2,15.12-3.18,22.88,3.24
		c5.85,4.84,14.25,9.35,22.94,6.06C1477.57,480.25,1482.59,481.69,1487.9,483.06z"/>
	<path class="st1" d="M1200.85,650.8c8.27,5.74,16.46-0.5,23.09-2.55c17.01-5.24,33.97-5.46,51.13-5.03
		c18.71,0.47,34.48-4.86,46.66-19.6c3.62-4.38,20.77-6.77,26.26-3.59c4.91,2.85,9.44,3.51,15.29,3.51
		c7.27-0.01,15.41-0.14,22.13,6.21c6.19,5.85,15.29,2.26,23.1,2.93c8.49,0.73,16.49-1.4,24.44,6.71c8.74,8.91,31.19,3.72,39.49-6.47
		c2.66-3.27,5.75-4.82,9.9-4.37c-4.95,39.43-16.92,76.97-32.41,113.27c-52.46,122.95-140.69,212.35-259.39,272.05
		c-57.68,29.01-119.08,46.08-183.59,51.58c-127.72,10.91-245.52-17.95-351.4-90.42c-113-77.34-182.38-185.07-215.04-317.29
		c-5.14-20.79-5.2-21.02,16.07-16.76c70.44,14.12,140.84,28.45,211.25,42.69c22,4.45,43.97,9.08,66.05,13.12
		c5.59,1.02,9.2,3.4,12.62,7.79c43.77,56.05,100.99,89.82,171.23,99.99c65.65,9.51,126.37-6.17,182.45-40.76
		c42.56-26.25,75.24-61.62,97.03-106.82C1198.26,654.87,1199.63,652.87,1200.85,650.8z"/>
	<path class="st2" d="M672.41,100.11c28.75-20.91,60.64-35.98,93.34-49.29c75.99-30.93,155.32-42.95,236.85-37.09
		c115.02,8.27,216.87,50.13,304.7,125.2c12.36,10.56,23.92,22.06,36.06,32.87c4.35,3.87,4.08,6.25-0.76,9.35
		c-22.15,14.16-44.17,28.53-66.23,42.82c-8.81-8.4-21.36-8.26-31.58-10.16c-18.71-3.48-38.49-2.29-57.76-2.62
		c-76.36-1.32-152.8,1.53-229.08-4.45c-5.73-0.45-10.52-0.69-10.42-8.1c0.04-2.96-1.71-4.53-4.59-4.36
		c-5.09,0.3-9.95-1.14-15.26-0.68c-8.28,0.72-17.64,3.69-25.11-2.2c-9.12-7.2-18.77-11.14-30.5-9.79c-4.21,0.49-9.3,0.24-9.36-5.46
		c-0.09-8.59-5.06-9.33-11.66-9.06c-7.89,0.32-15.81,1.16-19.91-8.61c-1.34-3.19-6.24-3.83-10.24-3.85
		c-4.48-0.02-8.96-0.5-13.44-0.58c-19.1-0.32-35.64-12.1-54.82-12.23c-2.59-0.02-5.61-1.43-6.38-4.56c-1-4.1-4.51-4.5-7.47-6.23
		c-12.97-7.6-26.75-12.43-41.73-13.8c-1.96-0.18-5.43-0.53-3.9-3.04c6.1-10-3.35-6.78-6.72-7.96
		C681.59,104.54,676.5,103.54,672.41,100.11z"/>
	<path class="st3" d="M672.41,100.11c4.08,3.44,9.17,4.43,14.04,6.13c3.37,1.18,12.82-2.04,6.72,7.96c-1.53,2.51,1.95,2.86,3.9,3.04
		c14.98,1.37,28.76,6.2,41.73,13.8c2.95,1.73,6.46,2.14,7.47,6.23c0.76,3.12,3.79,4.54,6.38,4.56
		c19.19,0.13,35.72,11.91,54.82,12.23c4.48,0.08,8.96,0.56,13.44,0.58c4,0.02,8.9,0.66,10.24,3.85c4.1,9.77,12.02,8.92,19.91,8.61
		c6.59-0.26,11.57,0.48,11.66,9.06c0.06,5.7,5.16,5.94,9.36,5.46c11.73-1.36,21.38,2.59,30.5,9.79c7.47,5.89,16.83,2.92,25.11,2.2
		c5.3-0.46,10.17,0.98,15.26,0.68c2.88-0.17,4.63,1.4,4.59,4.36c-0.1,7.41,4.69,7.65,10.42,8.1c76.29,5.98,152.72,3.14,229.08,4.45
		c19.27,0.33,39.05-0.86,57.76,2.62c10.22,1.9,22.77,1.75,31.58,10.16c-42.05,27.95-84.1,55.9-126.16,83.84
		c-5.19,3.45-11.03,6.17-15.51,10.36c-8.78,8.22-16.58,6.43-25.55,0.29c-43.55-29.81-92.56-43.5-144.65-44.58
		c-52.64-1.09-101.92,12.71-146.87,40.74c-2.33,1.45-4.8,2.68-7.21,4.02c-1.26-6.72-7.52-4.2-11.08-5.03
		c-13.89-3.23-25.7-12.72-41.14-12.08c-5.27,0.22-14.12-1.65-17.34-7.25c-5.2-9.04-12.62-10.7-21.61-10.8
		c-6.52-0.07-12.99-2.11-15.98-7.78c-2.19-4.14-5.44-5.43-8.49-7.96c-7.49-6.21-14.65,0.26-21.95-0.61
		c-10.26-1.23-11.5-2.62-5.95-11.49c1.12-1.79,2.61-3.39,1.5-5.6c-0.92-1.83-2.85-2.02-4.5-1.63
		c-19.57,4.59-34.86-11.13-53.43-11.21c-2.28-13.58-16.48-9.98-23.53-16.45c-4.41-4.04-8.63-6.52-14.66-5.87
		c-5.08,0.55-8.57-0.98-9.39-6.98c-0.39-2.85-2.75-5.43-4.21-8.13c20.05-25.23,43.52-47.03,68.33-67.4
		C641.34,120.59,655.82,108.83,672.41,100.11z"/>
	<path class="st4" d="M704.45,456.04c-9.25,31.28-15.14,63.06-14.3,95.85c0.33,13.15,1.49,26.29,4.37,39.04
		c2.01,8.91,0.51,10.53-8.44,8.65c-39.17-8.26-78.47-15.9-117.71-23.82c-42.96-8.67-85.86-17.63-128.9-25.87
		c-8.66-1.66-12.16-4.44-11.6-13.83c4.53-75.78,19.14-149.01,53.32-217.49c6.77-0.02,11.89,3.29,16.06,8.24
		c3.47,4.11,7.68,6.99,12.93,8.02c6.64,1.3,10.41,3.02,3.16,9.25c-3.51,3.01,0.18,4.47,2.28,6.13c9.51,7.51,20.72,10.48,32.36,12.61
		c5.14,0.94,10.5,2.37,8.69,9.87c-2.26,9.35,0.47,12.29,10.24,15.02c8.47,2.37,18.17-1.04,25.32,3.4
		c11.53,7.16,23.18,11,36.76,11.52c5.56,0.21,14.49,3.88,11.03,12.2c-3.19,7.67,0.11,8.5,5.45,10.94
		c10.13,4.62,21.78,6.97,29.57,15.5C683.14,450.13,692.33,455.72,704.45,456.04z"/>
	<path class="st5" d="M704.45,456.04c-12.13-0.32-21.32-5.91-29.42-14.79c-7.79-8.53-19.43-10.88-29.57-15.5
		c-5.34-2.44-8.64-3.27-5.45-10.94c3.46-8.32-5.47-11.98-11.03-12.2c-13.57-0.52-25.22-4.36-36.76-11.52
		c-7.15-4.44-16.84-1.04-25.32-3.4c-9.77-2.73-12.5-5.67-10.24-15.02c1.81-7.5-3.54-8.93-8.69-9.87
		c-11.64-2.12-22.85-5.1-32.36-12.61c-2.1-1.66-5.79-3.11-2.28-6.13c7.26-6.23,3.48-7.95-3.16-9.25c-5.25-1.03-9.46-3.9-12.93-8.02
		c-4.17-4.95-9.29-8.26-16.06-8.24c16.37-37.07,38.31-70.72,63.23-102.51c4.43-5.66,8.3-11.9,14.23-16.28
		c1.46,2.7,3.83,5.28,4.21,8.13c0.81,6.01,4.31,7.53,9.39,6.98c6.04-0.65,10.26,1.83,14.66,5.87c7.05,6.47,21.25,2.87,23.53,16.45
		c18.57,0.08,33.86,15.79,53.43,11.21c1.65-0.39,3.59-0.2,4.5,1.63c1.1,2.22-0.39,3.81-1.5,5.6c-5.55,8.87-4.31,10.27,5.95,11.49
		c7.31,0.87,14.46-5.6,21.95,0.61c3.05,2.53,6.3,3.82,8.49,7.96c2.99,5.67,9.46,7.71,15.98,7.78c8.99,0.1,16.41,1.76,21.61,10.8
		c3.22,5.6,12.08,7.47,17.34,7.25c15.44-0.63,27.25,8.85,41.14,12.08c3.57,0.83,9.82-1.69,11.08,5.03
		c-21.09,15.71-41.16,32.43-58.11,52.84c-18.59,22.39-33.89,46.48-43.48,74.06C707.59,449.12,705.92,452.55,704.45,456.04z"/>
	<path class="st6" d="M1487.9,483.06c-5.31-1.36-10.33-2.8-16.08-0.62c-8.69,3.29-17.09-1.22-22.94-6.06
		c-7.76-6.41-15.14-5.24-22.88-3.24c-6.18,1.6-12.61,2.96-17.92,7.45c-5.25,4.44-12.03,3.56-17.68,1.19
		c-19.31-8.11-38.7-10.53-58.94-3.82c-3.47,1.15-7.52,1.11-11.24,0.85c-7.34-0.52-12.57,1.16-17.41,7.8
		c-5.07,6.95-14.32,8.74-22.55,10.86c-2.44,0.63-5.59,0.88-7.76-1.52c-10.5-11.62-23.35-15.94-38.81-12.99
		c-3.66,0.7-7.57,0.11-11.37,0.11c-0.38-4.79,3.4-6.39,6.54-8.45c70.25-46.24,140.58-92.36,210.65-138.88
		c8.15-5.41,10.56-4.27,13.99,4.76c16.17,42.52,28.12,86.03,33.76,131.2C1487.72,475.45,1487.69,479.27,1487.9,483.06z"/>
</g>
</svg>
